<?xml version="1.0" standalone="no"?>
<!DOCTYPE svg PUBLIC "-//W3C//DTD SVG 20010904//EN"
 "http://www.w3.org/TR/2001/REC-SVG-20010904/DTD/svg10.dtd">
<svg version="1.0" xmlns="http://www.w3.org/2000/svg"
 width="722.000000pt" height="414.000000pt" viewBox="0 0 722.000000 414.000000"
 preserveAspectRatio="xMidYMid meet">

<g transform="translate(0.000000,414.000000) scale(0.100000,-0.100000)"
fill="#000000" stroke="none">
<path d="M2148 3609 c-30 -11 -1911 -1354 -1916 -1368 -3 -8 1548 -1253 1762
-1415 104 -79 119 -86 194 -86 68 0 120 26 166 83 26 32 31 48 34 106 5 76
-14 126 -65 172 -15 14 -282 217 -591 450 l-564 424 2006 3 2006 2 0 210 0
210 -2011 2 -2012 3 588 414 c323 228 600 425 616 439 86 72 94 214 15 300
-50 56 -153 78 -228 51z"/>
</g>
</svg>
