<?xml version="1.0" encoding="utf-8"?>
<svg version="1.1" x="0px" y="0px" viewBox="0 0 100 100" style="enable-background:new 0 0 100 100;" xmlns="http://www.w3.org/2000/svg">
  <path d="M91.4,56.4c2.1-2.3,3.4-5.3,3.4-8.7c0-7-5.6-12.7-12.4-12.7c-6.9,0-12.4,5.7-12.4,12.7c0,3.2,1.2,6.1,3.1,8.3  c-1.6,1-2.9,2.2-4.1,3.6c-1.9-2.3-4.1-4.4-6.7-6c3.3-3.2,5.3-7.7,5.3-12.7c0-9.8-7.8-17.7-17.4-17.7s-17.4,8-17.4,17.7  c0,4.7,1.8,9,4.8,12.2c-2.8,1.6-5.3,3.8-7.2,6.3c-1-1.1-2.2-2.2-3.5-3c2.1-2.3,3.4-5.3,3.4-8.7c0-7-5.6-12.7-12.4-12.7  S5.2,40.7,5.2,47.7c0,3.2,1.2,6.1,3.1,8.3C3,59.3-0.2,65.1,0,71.5C0,72.3,0.7,73,1.5,73c0,0,0,0,0,0c0.8,0,1.5-0.7,1.4-1.5  c-0.2-5.6,2.8-10.7,7.6-13.3c0.4,0.3,0.8,0.5,1.2,0.7c0,0,0,0,0.1,0c3,1.6,6.4,2,9.6,0.9c0,0,0,0,0,0c0.4-0.1,0.8-0.3,1.1-0.4  c0,0,0,0,0,0c0.6-0.3,1.3-0.6,1.9-1c1.6,0.9,2.9,2.2,4.1,3.6c-2.3,4-3.6,8.6-3.4,13.4c0,0.8,0.7,1.5,1.5,1.5c0,0,0,0,0,0  c0.8,0,1.5-0.7,1.4-1.5c-0.1-4.6,1.2-9,3.6-12.7c0,0,0,0,0,0c2-3.1,4.8-5.7,8.2-7.4c0.2,0.1,0.3,0.2,0.5,0.3c0,0,0.1,0.1,0.1,0.1  c0.4,0.3,0.9,0.6,1.3,0.8c0,0,0,0,0,0c4.6,2.6,10.1,2.8,15,0.8c0,0,0.1,0,0.1-0.1c0.5-0.2,0.9-0.4,1.4-0.7c0,0,0,0,0.1,0  c0.5-0.3,1-0.6,1.4-0.9c3.1,1.8,5.8,4.3,7.8,7.2c0,0.1,0.1,0.2,0.1,0.2c2.5,3.6,4,7.9,4.3,12.5c0.1,0.8,0.7,1.4,1.5,1.4  c0,0,0.1,0,0.1,0c0.8-0.1,1.4-0.8,1.4-1.6c-0.4-4.8-1.9-9.3-4.3-13.1c1.2-1.6,2.8-3,4.6-4c0.4,0.3,0.8,0.5,1.1,0.7c0,0,0,0,0.1,0  c3,1.6,6.4,2,9.6,0.9c0,0,0,0,0,0c0.4-0.1,0.7-0.3,1.1-0.4c0,0,0,0,0,0c0.6-0.3,1.3-0.6,1.9-1c4.6,2.8,7.6,7.7,8,13.2  c0.1,0.8,0.7,1.4,1.5,1.4c0,0,0.1,0,0.1,0c0.8-0.1,1.4-0.8,1.4-1.6C99.5,65.2,96.4,59.8,91.4,56.4z M17.6,38c5.2,0,9.5,4.3,9.5,9.7  c0,3.3-1.6,6.2-4.1,8c0,0-0.1,0.1-0.1,0.1c-0.2,0.2-0.5,0.3-0.7,0.4c0,0,0,0-0.1,0c-0.8,0.4-1.7,0.8-2.6,1c0,0,0,0,0,0  c-0.6,0.1-1.3,0.2-1.9,0.2c-1,0-1.9-0.2-2.8-0.4c0,0,0,0-0.1,0c-0.3-0.1-0.5-0.2-0.8-0.3c0,0,0,0-0.1,0c-3.4-1.5-5.8-4.9-5.8-8.9  C8.1,42.4,12.4,38,17.6,38z M50,26.1c8,0,14.5,6.6,14.5,14.7c0,5-2.5,9.5-6.3,12.1c-0.1,0-0.1,0.1-0.2,0.1c-0.3,0.2-0.7,0.4-1,0.6  c0,0-0.1,0-0.1,0.1c-2,1.1-4.4,1.8-6.9,1.8c-1.5,0-2.9-0.2-4.3-0.7c0,0,0,0-0.1,0c-0.4-0.1-0.8-0.3-1.2-0.5c0,0-0.1,0-0.1,0  c-5.2-2.2-8.8-7.5-8.8-13.6C35.5,32.7,42,26.1,50,26.1z M82.3,38c5.2,0,9.5,4.3,9.5,9.7c0,3.3-1.6,6.2-4.1,8c0,0-0.1,0.1-0.1,0.1  c-0.2,0.2-0.5,0.3-0.7,0.4c0,0,0,0-0.1,0c-0.8,0.4-1.7,0.8-2.6,1c0,0,0,0,0,0c-0.6,0.1-1.3,0.2-1.9,0.2c-1,0-1.9-0.2-2.8-0.4  c0,0,0,0-0.1,0c-0.3-0.1-0.5-0.2-0.8-0.3c0,0,0,0-0.1,0c-3.4-1.5-5.8-4.9-5.8-8.9C72.8,42.4,77.1,38,82.3,38z"/>
</svg>